<?xml version="1.0" encoding="UTF-8"?>
<svg xmlns="http://www.w3.org/2000/svg" xmlns:xlink="http://www.w3.org/1999/xlink" width="250px" height="250px" viewBox="0 0 250 250" version="1.1">
<g id="surface1">
<path style=" stroke:none;fill-rule:nonzero;fill:rgb(97.647059%,61.568627%,11.764706%);fill-opacity:1;" d="M 243.769531 125.085938 C 243.769531 191.609375 189.84375 245.539062 123.320312 245.539062 C 56.796875 245.539062 2.871094 191.609375 2.871094 125.085938 C 2.871094 58.566406 56.796875 4.640625 123.320312 4.640625 C 189.84375 4.640625 243.769531 58.566406 243.769531 125.085938 Z M 243.769531 125.085938 "/>
<path style=" stroke:none;fill-rule:nonzero;fill:rgb(0%,0%,0%);fill-opacity:1;" d="M 237.65625 125.085938 C 237.65625 188.234375 186.464844 239.425781 123.320312 239.425781 C 60.175781 239.425781 8.984375 188.234375 8.984375 125.085938 C 8.984375 61.941406 60.175781 10.753906 123.320312 10.753906 C 186.464844 10.753906 237.65625 61.941406 237.65625 125.085938 Z M 237.65625 125.085938 "/>
<path style=" stroke:none;fill-rule:nonzero;fill:rgb(100%,100%,100%);fill-opacity:1;" d="M 71.335938 193.144531 C 70.742188 147.539062 70.429688 101.945312 71.484375 56.347656 C 71.757812 55.625 72.039062 54.902344 72.3125 54.167969 C 73.113281 51.082031 75.449219 49.785156 78.300781 49.480469 C 84.375 48.847656 102.46875 62.0625 103.992188 68.351562 C 110.460938 95.105469 116.796875 121.894531 123.234375 148.664062 C 123.816406 151.105469 123 154.863281 126.582031 155.148438 C 129.941406 155.398438 131.660156 152.480469 132.960938 149.550781 C 139.421875 134.882812 145.929688 120.226562 152.492188 105.605469 C 156.855469 95.890625 159.484375 94.824219 168.273438 99.933594 C 173.671875 103.066406 181.960938 104.53125 183.210938 110.78125 C 185.03125 119.804688 184.140625 129.464844 183.664062 138.808594 C 183.476562 142.363281 180.039062 144.277344 176.257812 144.132812 C 172.03125 143.964844 169.335938 141.515625 168.984375 137.441406 C 168.546875 132.324219 168.789062 127.148438 168.742188 121.992188 C 168.71875 119.824219 168.691406 117.441406 165.945312 117.082031 C 163.574219 116.769531 163.261719 119.191406 162.558594 120.683594 C 156.867188 132.714844 150.683594 144.550781 145.820312 156.914062 C 141.367188 168.242188 131.191406 171.90625 121.875 176.191406 C 115.820312 178.976562 113 173.429688 111.710938 167.832031 C 105.957031 142.773438 100.125 117.734375 94.296875 92.695312 C 92.765625 86.09375 91.113281 79.511719 89.523438 72.921875 C 88.632812 72.960938 87.753906 73.007812 86.867188 73.046875 C 86.867188 76.042969 86.867188 79.03125 86.867188 82.03125 C 86.867188 117.804688 86.835938 153.582031 86.894531 189.355469 C 86.90625 193.875 86.308594 198.183594 81.59375 199.875 C 77.53125 201.328125 73.75 200.554688 72.234375 195.605469 C 71.933594 194.785156 71.640625 193.964844 71.335938 193.144531 Z M 71.335938 193.144531 "/>
<path style=" stroke:none;fill-rule:nonzero;fill:rgb(97.647059%,61.568627%,11.764706%);fill-opacity:1;" d="M 122.089844 209.765625 C 117.605469 209.328125 113.085938 208.9375 108.574219 208.417969 C 104.433594 207.9375 100.304688 207.0625 101.355469 201.445312 C 102.304688 196.417969 106.199219 196.925781 109.96875 197.539062 C 123.769531 199.785156 137.175781 198.429688 150.105469 193.046875 C 167.921875 185.625 181.132812 173.359375 189.285156 155.742188 C 191.015625 152.011719 192.371094 146.710938 198.105469 149.132812 C 204.628906 151.894531 201.042969 156.84375 199.148438 160.625 C 183.273438 192.246094 157.375 208.234375 122.089844 209.765625 Z M 122.089844 209.765625 "/>
<path style=" stroke:none;fill-rule:nonzero;fill:rgb(97.647059%,61.568627%,11.764706%);fill-opacity:1;" d="M 122.851562 40.460938 C 157.46875 42.246094 183.445312 57.742188 199.09375 89.199219 C 201.023438 93.078125 204.257812 98.164062 197.960938 100.800781 C 192.421875 103.125 191.0625 97.921875 189.179688 94.09375 C 175.917969 67.207031 154.128906 53.171875 124.324219 51.40625 C 121.609375 51.238281 118.867188 51.414062 116.132812 51.492188 C 112.429688 51.601562 108.164062 52.078125 107.695312 47.03125 C 107.195312 41.6875 111.355469 40.710938 115.578125 40.488281 C 117.988281 40.339844 120.429688 40.460938 122.851562 40.460938 Z M 122.851562 40.460938 "/>
<path style=" stroke:none;fill-rule:nonzero;fill:rgb(97.647059%,61.568627%,11.764706%);fill-opacity:1;" d="M 37.375 124.109375 C 37.539062 110.382812 41.066406 96.101562 48.601562 82.929688 C 50.421875 79.757812 52.6875 76.0625 57.101562 78.367188 C 61.84375 80.851562 60.332031 84.609375 58.242188 88.4375 C 45.390625 112.011719 45.085938 135.820312 57.226562 159.785156 C 59.042969 163.378906 61.132812 167.539062 56.289062 170.039062 C 51.320312 172.609375 49.328125 168.183594 47.460938 164.746094 C 40.851562 152.53125 37.570312 139.414062 37.375 124.109375 Z M 37.375 124.109375 "/>
<path style=" stroke:none;fill-rule:nonzero;fill:rgb(100%,100%,100%);fill-opacity:1;" d="M 201.164062 116.921875 C 206.257812 117.804688 209.511719 120.148438 209.257812 125.34375 C 209.03125 129.921875 206.21875 132.742188 201.6875 132.726562 C 196.6875 132.695312 193.925781 129.707031 194.003906 124.589844 C 194.070312 119.726562 197.34375 117.882812 201.164062 116.921875 Z M 201.164062 116.921875 "/>
<path style=" stroke:none;fill-rule:nonzero;fill:rgb(26.666667%,26.27451%,26.27451%);fill-opacity:1;" d="M 71.335938 193.144531 C 71.640625 193.964844 71.933594 194.785156 72.234375 195.605469 C 71.933594 194.785156 71.640625 193.964844 71.335938 193.144531 Z M 71.335938 193.144531 "/>
<path style=" stroke:none;fill-rule:nonzero;fill:rgb(26.666667%,26.27451%,26.27451%);fill-opacity:1;" d="M 72.3125 54.179688 C 72.039062 54.902344 71.757812 55.625 71.484375 56.355469 C 71.757812 55.625 72.03125 54.902344 72.3125 54.179688 Z M 72.3125 54.179688 "/>
</g>
</svg>
